<?xml version="1.0" encoding="UTF-8"?>
<svg width="16px" height="27px" viewBox="0 0 16 27" version="1.1" xmlns="http://www.w3.org/2000/svg" xmlns:xlink="http://www.w3.org/1999/xlink">
    <title>路径</title>
    <g id="页面-1" stroke="none" stroke-width="1" fill="none" fill-rule="evenodd">
        <g id="新建" transform="translate(-684.000000, -756.000000)" fill="#333333" fill-rule="nonzero">
            <g id="RightOutline备份-3" transform="translate(684.000000, 756.000000)">
                <path d="M2.71643488,0.0795899884 L15.6856009,12.5493273 C16.0800527,12.9401157 16.1035914,13.5611179 15.7547905,13.9803262 L15.6856009,14.0563527 L2.71717047,26.9168683 L2.71717047,26.9168683 C2.66361707,26.9701545 2.5910016,27 2.51530771,27 L0.28554321,27 L0.285543219,27 C0.127966128,27 0,26.8729781 0,26.7160133 C0,26.6405038 0.0300488466,26.5680744 0.0836801194,26.5147106 L13.3623945,13.345116 L0.0979237566,0.488130751 L0.097923752,0.488130747 C-0.0151379601,0.378795398 -0.0178131559,0.19886315 0.0919484793,0.0862415055 C0.145743621,0.0310442667 0.219703874,0 0.296933477,0 L2.51813842,0 L2.51813842,0 C2.59209299,0 2.66318746,0.0284558636 2.71643492,0.0795789888 L2.71643488,0.0795899884 Z" id="路径"></path>
            </g>
        </g>
    </g>
</svg>